<?xml version="1.0" standalone="no"?>
<!DOCTYPE svg PUBLIC "-//W3C//DTD SVG 20010904//EN"
 "http://www.w3.org/TR/2001/REC-SVG-20010904/DTD/svg10.dtd">
<svg version="1.0" xmlns="http://www.w3.org/2000/svg"
 width="872.000000pt" height="872.000000pt" viewBox="0 0 872.000000 872.000000"
 preserveAspectRatio="xMidYMid meet">
<metadata>
Created by potrace 1.14, written by Peter Selinger 2001-2017
</metadata>
<g transform="translate(0.000000,872.000000) scale(0.100000,-0.100000)"
fill="#000000" stroke="none">
<path d="M4119 8625 c-2 -2 -49 -6 -104 -10 -55 -4 -116 -9 -135 -11 -19 -3
-53 -6 -75 -9 -37 -3 -72 -9 -135 -20 -14 -2 -43 -7 -65 -10 -47 -6 -49 -6
-179 -35 -54 -12 -106 -23 -115 -25 -9 -2 -50 -13 -91 -24 -41 -12 -85 -23
-97 -26 -12 -3 -87 -27 -167 -54 -80 -27 -146 -47 -146 -44 0 3 -6 1 -12 -5
-7 -5 -53 -26 -103 -47 -171 -70 -408 -183 -413 -197 -2 -4 -11 -8 -21 -8 -9
0 -21 -4 -27 -9 -5 -5 -26 -19 -46 -30 -21 -12 -53 -30 -71 -40 -51 -29 -195
-120 -237 -149 -21 -15 -48 -34 -60 -42 -286 -192 -645 -529 -885 -830 -33
-41 -64 -79 -68 -85 -44 -55 -129 -176 -139 -197 -7 -16 -16 -28 -21 -28 -4 0
-15 -16 -24 -35 -9 -19 -20 -35 -25 -35 -4 0 -8 -6 -8 -14 0 -8 -6 -21 -13
-28 -8 -7 -25 -33 -39 -58 -14 -25 -35 -61 -46 -80 -11 -19 -47 -87 -79 -150
-32 -63 -61 -116 -65 -118 -5 -2 -8 -7 -8 -12 0 -5 -5 -21 -12 -37 -6 -15 -12
-30 -13 -33 -1 -3 -11 -25 -22 -50 -12 -25 -31 -72 -44 -105 -13 -33 -27 -65
-32 -72 -4 -6 -10 -24 -13 -39 -3 -15 -8 -32 -12 -38 -3 -6 -8 -15 -9 -21 -1
-5 -14 -44 -28 -85 -28 -82 -83 -270 -91 -310 -3 -14 -10 -43 -16 -65 -6 -22
-13 -53 -15 -70 -7 -40 -11 -59 -13 -62 -2 -2 -3 -11 -4 -20 -1 -10 -5 -31 -9
-48 -11 -53 -21 -119 -21 -152 -1 -18 -4 -33 -7 -33 -3 0 -6 -6 -6 -12 -3 -45
-12 -153 -13 -153 -14 0 -19 -584 -7 -725 13 -148 26 -256 43 -345 3 -16 7
-43 9 -60 2 -16 6 -39 9 -50 2 -11 12 -54 21 -95 9 -41 18 -84 21 -95 3 -11 7
-29 9 -40 3 -11 14 -51 25 -90 11 -38 23 -80 26 -93 9 -44 85 -264 110 -319 8
-17 14 -33 14 -36 0 -2 8 -22 17 -43 9 -22 18 -41 18 -44 19 -56 204 -430 228
-459 7 -9 22 -33 32 -53 11 -21 24 -38 29 -38 5 0 7 -3 4 -6 -4 -3 5 -22 18
-42 13 -20 29 -44 34 -52 60 -92 134 -196 141 -198 5 -2 9 -9 9 -15 0 -10 26
-44 84 -110 9 -9 16 -20 16 -23 0 -3 6 -11 12 -18 7 -7 33 -37 58 -66 98 -115
130 -149 262 -280 154 -152 217 -210 229 -210 4 0 9 -4 11 -9 8 -20 321 -261
378 -291 14 -7 27 -16 30 -19 10 -13 119 -81 129 -81 6 0 11 -4 11 -8 0 -5 12
-15 27 -23 16 -7 51 -27 78 -43 298 -173 714 -344 1045 -431 103 -27 297 -71
345 -79 17 -2 30 -5 30 -6 0 -1 11 -3 25 -5 14 -1 54 -8 90 -14 61 -10 118
-17 200 -26 19 -2 71 -7 115 -11 153 -16 679 -9 825 10 14 2 50 7 80 11 30 3
84 11 120 16 36 6 74 12 85 14 52 8 104 18 164 32 36 8 84 18 106 23 22 5 74
18 115 29 41 12 83 23 93 25 80 21 396 131 472 166 11 5 43 19 70 31 117 51
301 142 307 153 4 6 8 8 8 3 0 -4 18 4 40 18 22 14 42 25 46 25 3 0 51 28 106
63 55 34 115 71 134 82 18 11 43 28 54 37 11 10 23 18 26 18 4 0 141 99 208
151 41 31 219 180 256 213 82 76 275 271 330 335 30 35 62 71 70 80 8 9 31 37
50 61 19 25 37 47 40 50 17 15 141 188 214 298 81 124 103 159 142 232 11 19
22 37 25 40 19 17 236 483 253 545 2 6 7 21 13 35 29 73 103 305 102 320 0 3
5 19 11 35 7 17 14 39 16 50 2 11 6 29 8 40 2 11 9 40 16 65 7 25 13 52 15 60
3 19 18 93 20 100 1 3 5 25 9 50 16 97 22 134 31 210 3 25 8 56 10 70 12 67
19 237 19 455 0 300 -10 444 -50 680 -19 114 -19 112 -43 225 -12 52 -24 106
-27 120 -3 14 -14 57 -26 95 -12 39 -22 77 -24 85 -1 8 -14 49 -28 90 -15 41
-28 82 -30 90 -6 22 -35 98 -57 147 -10 24 -19 47 -19 53 0 6 -4 18 -9 28 -5
9 -19 40 -31 67 -42 94 -73 160 -81 175 -5 8 -15 30 -23 48 -42 93 -270 472
-288 480 -5 2 -8 8 -8 13 0 6 -5 15 -10 22 -6 7 -43 55 -82 107 -136 182 -236
297 -408 470 -111 111 -188 182 -259 240 -23 19 -53 43 -64 54 -68 59 -341
255 -418 301 -17 10 -229 134 -291 169 -18 11 -35 20 -38 21 -3 1 -63 30 -135
64 -126 61 -454 194 -472 192 -2 0 -18 6 -38 15 -19 8 -37 14 -40 14 -3 0 -10
2 -17 5 -67 22 -328 91 -381 100 -18 3 -48 10 -67 15 -31 8 -70 15 -135 25
-11 2 -51 9 -90 15 -38 6 -90 13 -115 15 -25 2 -45 4 -45 5 0 1 -16 3 -35 5
-19 2 -60 7 -90 10 -60 7 -616 16 -621 10z"/>
</g>
</svg>
